PathFileType   4   (X/Y/Z)																																																																																																																							
DataRate	CameraRate	NumFrames	NumMarkers	Units	OrigDataRate	OrigDataStartFrame	OrigNumFrames																																																																																																																
120	120	6	37	mm	120	79	125																																																																																																																
Frame#	Time	Sternum	R.Acromium	L.Acromium	Top.Head	R.ASIS	L.ASIS	V.Sacral	R.Thigh.Upper	R.Thigh.Front	R.Thigh.Rear	R.Knee.Lat	R.Knee.Med	R.Shank.Upper	R.Shank.Front	R.Shank.Rear	R.Ankle.Lat	R.Ankle.Med	R.Heel	R.Midfoot.Sup	R.Midfoot.Lat	R.Toe.Lat	R.Toe.Med	R.Toe.Tip	L.Thigh.Upper	L.Thigh.Front	L.Thigh.Rear	L.Knee.Lat	L.Knee.Med	L.Shank.Upper	L.Shank.Front	L.Shank.Rear	L.Ankle.Lat	L.Ankle.Med	L.Heel	L.Midfoot.Sup	L.Midfoot.Lat	L.Toe.Lat	L.Toe.Med	L.Toe.Tip																																																																															
 	 	X1	Y1	Z1	X2	Y2	Z2	X3	Y3	Z3	X4	Y4	Z4	X5	Y5	Z5	X6	Y6	Z6	X7	Y7	Z7	X8	Y8	Z8	X9	Y9	Z9	X10	Y10	Z10	X11	Y11	Z11	X12	Y12	Z12	X13	Y13	Z13	X14	Y14	Z14	X15	Y15	Z15	X16	Y16	Z16	X17	Y17	Z17	X18	Y18	Z18	X19	Y19	Z19	X20	Y20	Z20	X21	Y21	Z21	X22	Y22	Z22	X23	Y23	Z23	X24	Y24	Z24	X25	Y25	Z25	X26	Y26	Z26	X27	Y27	Z27	X28	Y28	Z28	X29	Y29	Z29	X30	Y30	Z30	X31	Y31	Z31	X32	Y32	Z32	X33	Y33	Z33	X34	Y34	Z34	X35	Y35	Z35	X36	Y36	Z36	X37	Y37	Z37	X38	Y38	Z38	X39	Y39	Z39	
																																																																																																																							
	79	0.8	2072.323476	-0.001002095	1356.879882	1992.632397	-161.9453511	1417.625177	1995.381232	165.1979949	1417.540275	2080.877024	-10.08809499	1648.933169	2119.583668	-117.7896216	992.4270067	2125.889302	119.399185	985.5542134	1943.475014	-5.611229398	979.8446587	2159.768302	-173.4115572	671.2856892	2238.294553	-67.95180237	621.3051124	2181.668554	-162.9734513	538.7752921	2162.669186	-142.5943975	436.1854824	2165.372414	-8.355853302	417.8144353	2122.397142	-154.6508593	401.7371094	2202.592681	-93.81404015	355.5783351	2132.075223	-165.0122006	305.3784808	2107.810471	-136.9768135	-12.61944001	2117.836694	-37.22329306	2.811612845	2037.018675	-79.10633289	-40.3805852	2188.758304	-41.71858376	-26.57033171	2183.429581	-155.3841374	-47.55921348	2278.578719	-165.0174344	-71.86011655	2280.887438	-50.15543807	-57.98459759	2345.424246	-83.79364801	-56.73487384	2097.954444	178.8034865	666.0364567	2187.308747	95.03600439	625.5046489	2094.620853	161.7547942	545.2486466	2074.34543	144.5366564	399.8624561	2075.649576	15.87918741	400.7330419	2019.545627	162.4477689	390.42951	2011.212328	100.5194763	316.3987548	1970.862454	174.5177999	372.4119655	1723.426097	136.4325857	123.2252063	1745.784055	34.31683281	137.3087687	1662.264835	76.11439987	182.2382123	1761.876093	48.15109198	29.22041473	1751.498917	152.6198727	45.7005576	1766.369505	163.716336	-24.12145343	1775.970423	55.50675189	-39.4090342	1804.482947	82.30973808	-83.04028551
	80	0.80833	2081.620586	-0.001002095	1358.349414	2001.989846	-161.9453511	1419.173787	2004.738596	165.1979949	1419.086156	2090.464046	-10.08809499	1650.394066	2128.518022	-117.7896216	993.8462771	2134.81662	119.399185	986.9670348	1952.396585	-5.611229398	981.4441472	2164.852046	-173.4115572	670.858315	2242.524633	-67.95180237	619.5611479	2184.515501	-162.9734513	537.99758	2163.789509	-142.5943975	435.7426129	2166.182678	-8.355853302	417.3286087	2123.525861	-154.6508593	401.6456614	2203.480398	-93.81404015	355.07068	2132.70297	-165.0122006	305.2380309	2106.785694	-136.9768135	-12.62947402	2116.891988	-37.22329306	2.749257305	2035.987768	-79.10633289	-40.39639049	2187.73156	-41.71858376	-26.63194719	2182.3965	-155.3841374	-47.61921929	2277.538297	-165.0174344	-71.94884638	2279.851206	-50.15543807	-58.07402505	2344.388387	-83.79364801	-56.84378474	2110.962679	178.8034865	668.5730029	2201.050172	95.03600439	629.698045	2109.860019	161.7547942	547.7442313	2092.272629	144.5366564	402.0084401	2093.560476	15.87918741	402.9029586	2037.229495	162.4477689	391.9117852	2029.636962	100.5194763	317.8013943	1988.728943	174.5177999	373.4082826	1743.796966	136.4325857	121.7594826	1766.012963	34.31683281	136.0659328	1680.120458	76.11439987	178.1206868	1786.484734	48.15109198	29.71755274	1775.3799	152.6198727	45.71641393	1793.362574	163.716336	-23.36955458	1803.638519	55.50675189	-38.21181531	1834.076477	82.30973808	-80.52234354
	81	0.81667	2090.931546	-0.001002095	1359.710285	2011.37217	-161.9453511	1420.627972	2014.120815	165.1979949	1420.537118	2100.117383	-10.08809499	1651.744368	2137.406934	-117.7896216	995.1721304	2143.698641	119.399185	988.2865855	1961.273168	-5.611229398	982.9463375	2169.897852	-173.4115572	670.4173014	2246.703375	-67.95180237	617.8307844	2187.340881	-162.9734513	537.2468575	2164.910955	-142.5943975	435.3520909	2166.996428	-8.355853302	416.9007057	2124.659001	-154.6508593	401.5990956	2204.373283	-93.81404015	354.614095	2133.340855	-165.0122006	305.1456044	2105.791406	-136.9768135	-12.58460142	2115.976549	-37.22329306	2.742022808	2034.978473	-79.10633289	-40.3333602	2186.730646	-41.71858376	-26.6616216	2181.382766	-155.3841374	-47.64563052	2276.509682	-165.0174344	-72.03337636	2278.831066	-50.15543807	-58.15997061	2343.368988	-83.79364801	-56.96915708	2123.771807	178.8034865	671.0536339	2214.539213	95.03600439	633.7937782	2124.827244	161.7547942	550.2244406	2109.845402	144.5366564	404.1977938	2111.117069	15.87918741	405.1151698	2054.721721	162.4477689	393.3336784	2048.060472	100.5194763	319.1337839	2006.457362	174.5177999	374.2225605	1764.704929	136.4325857	119.5177262	1786.739512	34.31683281	134.1020388	1698.506505	76.11439987	172.9611366	1811.748103	48.15109198	29.73687315	1799.901445	152.6198727	45.19447919	1821.120767	163.716336	-22.96700555	1832.084937	55.50675189	-37.3083698	1864.483531	82.30973808	-78.1370507
	82	0.825	2100.251916	-0.001002095	1360.954021	2020.773136	-161.9453511	1421.976824	2023.521659	165.1979949	1421.882337	2109.823785	-10.08809499	1652.975707	2146.256985	-117.7896216	996.3976249	2152.542151	119.399185	989.5061091	1970.11169	-5.611229398	984.3390757	2174.937413	-173.4115572	669.961446	2250.868148	-67.95180237	616.119514	2190.189045	-162.9734513	536.5222685	2166.087216	-142.5943975	435.0099693	2167.869105	-8.355853302	416.5267964	2125.84437	-154.6508593	401.5955007	2205.314703	-93.81404015	354.1990546	2134.027503	-165.0122006	305.0984185	2104.835955	-136.9768135	-12.48512857	2115.100191	-37.22329306	2.788640027	2034.001098	-79.10633289	-40.19740428	2185.764881	-41.71858376	-26.65515704	2180.399098	-155.3841374	-47.63459511	2275.505169	-165.0174344	-72.10350152	2277.838391	-50.15543807	-58.2320816	2342.377305	-83.79364801	-57.09633712	2136.396006	178.8034865	673.4626773	2227.7934	95.03600439	637.7760514	2139.538164	161.7547942	552.6697356	2127.080628	144.5366564	406.4061142	2128.336261	15.87918741	407.3453167	2072.036953	162.4477689	394.6809462	2066.490739	100.5194763	320.3893848	2024.065034	174.5177999	374.8471818	1786.164848	136.4325857	116.5405944	1807.977929	34.31683281	131.4541628	1717.510744	76.11439987	166.8511143	1837.569972	48.15109198	29.29155949	1824.987073	152.6198727	44.15599865	1849.489457	163.716336	-22.89533082	1861.136733	55.50675189	-36.68767321	1895.478679	82.30973808	-75.89584671
	83	0.83333	2109.575607	-0.001002095	1362.073252	2030.184829	-161.9453511	1423.210502	2032.933212	165.1979949	1423.112055	2119.568198	-10.08809499	1654.080844	2155.073208	-117.7896216	997.5165325	2161.352369	119.399185	990.619545	1978.917476	-5.611229398	985.6114093	2179.997693	-173.4115572	669.4875995	2255.051189	-67.95180237	614.4294217	2193.097661	-162.9734513	535.8200372	2167.363611	-142.5943975	434.7091884	2168.847508	-8.355853302	416.1997081	2127.122506	-154.6508593	401.6296587	2206.341444	-93.81404015	353.8142127	2134.795951	-165.0122006	305.0907091	2103.927739	-136.9768135	-12.33425726	2114.272488	-37.22329306	2.885095773	2033.065877	-79.10633289	-39.99695031	2184.843564	-41.71858376	-26.61143207	2179.456119	-155.3841374	-47.58531788	2274.536871	-165.0174344	-72.15242435	2276.884416	-50.15543807	-58.28342126	2341.424468	-83.79364801	-57.21432474	2148.850188	178.8034865	675.7867123	2240.831219	95.03600439	641.63252	2154.01062	161.7547942	555.0631527	2143.999208	144.5366564	408.6117657	2145.23897	15.87918741	409.5718214	2089.192043	162.4477689	395.9438006	2084.935177	100.5194763	321.5672205	2041.571337	174.5177999	375.2809944	1808.187007	136.4325857	112.887119	1829.738145	34.31683281	128.1767704	1737.197167	76.11439987	159.8979553	1863.874418	48.15109198	28.40756278	1850.575915	152.6198727	42.63537768	1878.345296	163.716336	-23.13018397	1890.656597	55.50675189	-36.33319924	1926.88471	82.30973808	-73.80550807
	84	0.84167	2118.895442	-0.001002095	1363.061674	2039.598324	-161.9453511	1424.320356	2042.346553	165.1979949	1424.217703	2129.334924	-10.08809499	1655.05363	2163.858969	-117.7896216	998.5234796	2170.132831	119.399185	991.6216713	1987.694146	-5.611229398	986.7536604	2185.100458	-173.4115572	668.9910035	2259.278961	-67.95180237	612.7595203	2196.097069	-162.9734513	535.1339868	2168.776372	-142.5943975	434.4402699	2169.96905	-8.355853302	415.9097456	2128.525936	-154.6508593	401.6936824	2207.482997	-93.81404015	353.4470307	2135.672919	-165.0122006	305.1143306	2103.074506	-136.9768135	-12.13761865	2113.50208	-37.22329306	3.025106701	2032.18218	-79.10633289	-39.74224509	2183.975238	-41.71858376	-26.5321677	2178.563554	-155.3841374	-47.49981243	2273.615847	-165.0174344	-72.17680136	2275.979421	-50.15543807	-58.31052095	2340.520665	-83.79364801	-57.31602361	2161.14885	178.8034865	678.0145273	2253.670733	95.03600439	645.3538487	2168.262943	161.7547942	557.3903275	2160.623677	144.5366564	410.7960618	2161.847733	15.87918741	411.7760616	2106.203949	162.4477689	397.1166223	2103.399062	100.5194763	322.6711443	2058.995462	174.5177999	375.5286169	1830.775153	136.4325857	108.6311049	1852.023871	34.31683281	124.3383322	1757.605935	76.11439987	152.2187334	1890.602619	48.15109198	27.12384393	1876.619832	152.6198727	40.67974858	1907.593057	163.716336	-23.63904282	1920.539391	55.50675189	-36.21998842	1958.56827	82.30973808	-71.86342356
